PathFileType	4	(X/Y/Z)	s05c0402.trc
DataRate	CameraRate	NumFrames	NumMarkers	Units	OrigDataRate	OrigDataStartFrame	OrigNumFrames
200	200	5	50	mm	200	250	2000
Frame#	Time	racr			lacr			c7			jug			rlel			rdr			llel			ldr			s2			lic			ric			lasi			rasi			rpsi			lpsi			rgt			lgt			rth1			rth2			rth3			rth4			rlfc			rmfc			rsh1			rsh2			rsh3			rsh4			rlmal			rmmal			rcal			rtoe			rmt5			lth1			lth2			lth4			lth3			llfc			lmfc			lsh1			lsh2			lsh3			lsh4			llmal			lmmal			lcal			ltoe			lmt5			SBIKE			LBIKE			RBIKE			
		X1	Y1	Z1	X2	Y2	Z2	X3	Y3	Z3	X4	Y4	Z4	X5	Y5	Z5	X6	Y6	Z6	X7	Y7	Z7	X8	Y8	Z8	X9	Y9	Z9	X10	Y10	Z10	X11	Y11	Z11	X12	Y12	Z12	X13	Y13	Z13	X14	Y14	Z14	X15	Y15	Z15	X16	Y16	Z16	X17	Y17	Z17	X18	Y18	Z18	X19	Y19	Z19	X20	Y20	Z20	X21	Y21	Z21	X22	Y22	Z22	X23	Y23	Z23	X24	Y24	Z24	X25	Y25	Z25	X26	Y26	Z26	X27	Y27	Z27	X28	Y28	Z28	X29	Y29	Z29	X30	Y30	Z30	X31	Y31	Z31	X32	Y32	Z32	X33	Y33	Z33	X34	Y34	Z34	X35	Y35	Z35	X36	Y36	Z36	X37	Y37	Z37	X38	Y38	Z38	X39	Y39	Z39	X40	Y40	Z40	X41	Y41	Z41	X42	Y42	Z42	X43	Y43	Z43	X44	Y44	Z44	X45	Y45	Z45	X46	Y46	Z46	X47	Y47	Z47	X48	Y48	Z48	X49	Y49	Z49	X50	Y50	Z50	
250	1.2500	392.059912	1392.792073	-150.652867	393.142361	1398.306183	-445.424709	379.116905	1473.205967	-299.722225	358.091136	1316.699986	-298.236031	490.597309	1153.215194	-49.709392	679.572175	965.255309	-87.790963	462.650468	1142.604679	-555.475907	674.384971	966.175339	-505.764427	-114.797073	1149.411478	-284.161055	28.298911	1168.848957	-427.381523	29.275312	1194.071998	-148.656845	82.867107	1122.588481	-391.428419	76.378925	1135.542402	-172.899341	-87.825480	1197.167584	-245.168751	-84.886595	1198.417494	-332.517118	0.760561	1070.570654	-107.660466	-34.853371	1056.631435	-449.301799	103.316905	1026.719612	-90.430184	191.620530	1020.908417	-82.904627	263.834137	970.414032	-79.311501	203.959201	1053.820707	-95.424793	407.849249	903.807497	-99.856022	399.005225	899.251593	-211.268710	337.854009	816.101560	-82.335338	319.391411	730.018774	-96.646287	263.740447	665.266541	-104.270579	347.303795	720.391924	-121.189012	207.349206	547.052478	-119.895852	224.832541	577.706443	-198.239110	133.168161	521.602154	-168.040109	423.511101	467.148791	-160.115048	320.202139	456.114202	-94.986660	39.568900	935.694024	-469.612014	104.717640	879.693899	-471.577481	135.602252	898.029691	-460.223001	132.675429	793.469550	-473.252979	195.704979	657.731073	-446.322260	189.606627	648.694323	-337.187948	110.206374	559.265089	-465.161693	85.597721	476.283823	-450.811260	20.683069	415.999629	-445.513076	113.882012	462.791441	-428.453845	-35.230399	304.682270	-433.133062	-2.526283	329.211785	-357.922781	-102.843527	273.334575	-386.979664	182.789548	206.074228	-403.309242	70.316129	197.913879	-462.235697	-265.134518	893.774152	-286.311822	-53.489162	78.970667	-475.142868	-53.565387	79.143601	-77.409748	
251	1.2550	391.957146	1392.721864	-150.488115	393.137505	1398.270542	-445.238652	379.083466	1473.159516	-299.551372	358.040480	1316.648535	-298.084292	490.592527	1153.182538	-49.685112	679.532375	965.204648	-87.840037	462.661481	1142.652505	-555.409514	674.347022	966.173502	-505.579140	-114.837236	1149.372327	-284.138817	28.270464	1168.843539	-427.346214	29.231901	1193.958753	-148.614871	82.837912	1122.552712	-391.379741	76.318536	1135.535394	-172.864231	-87.895730	1197.115191	-245.160983	-84.917300	1198.392867	-332.514643	0.712050	1070.600404	-107.614409	-34.902705	1056.575011	-449.274636	103.300720	1026.813492	-90.390426	191.615858	1021.078077	-82.906114	263.849301	970.628661	-79.289611	203.931680	1053.999583	-95.450675	407.920712	904.140937	-99.894768	399.046613	899.566663	-211.297502	337.799859	816.497982	-82.384368	319.283765	730.514068	-96.685910	263.601392	665.697123	-104.306540	347.207241	720.901304	-121.244299	207.137078	547.598413	-119.931996	224.554515	578.434047	-198.346320	132.938814	522.238410	-168.067367	423.187102	467.401455	-160.099656	319.927787	456.411787	-95.003087	39.477446	935.604338	-469.584716	104.585011	879.574888	-471.537754	135.461689	897.869311	-460.187110	132.487017	793.335011	-473.195745	195.463200	657.584164	-446.278045	189.406815	648.584223	-337.172695	110.078656	559.038594	-465.156291	85.603779	475.999146	-450.787592	20.773232	415.582169	-445.504129	113.884538	462.563482	-428.438566	-35.033420	304.245922	-433.126322	-2.311069	328.857656	-357.942633	-102.577207	272.915172	-386.969943	183.133893	205.782747	-403.315934	70.658530	197.545113	-462.232623	-265.108777	893.765557	-286.369673	-53.490041	78.978313	-475.138458	-53.561329	79.104592	-77.445184	
252	1.2600	391.854679	1392.663057	-150.319421	393.130377	1398.257998	-445.079852	379.072208	1473.132668	-299.394322	358.029202	1316.574467	-297.945152	490.591221	1153.132361	-49.714908	679.498711	965.169493	-87.879034	462.695671	1142.706928	-555.313405	674.317725	966.175842	-505.421040	-114.888094	1149.334204	-284.112461	28.278721	1168.825937	-427.309016	29.161622	1193.881156	-148.533417	82.820648	1122.514985	-391.321672	76.251886	1135.505235	-172.786589	-87.950261	1197.086444	-245.156036	-84.955690	1198.356807	-332.479507	0.670287	1070.607458	-107.587204	-34.936184	1056.538364	-449.237641	103.291690	1026.920982	-90.384993	191.611074	1021.296429	-82.928194	263.902645	970.816762	-79.295249	203.902665	1054.189577	-95.456189	408.006894	904.500317	-99.933429	399.063587	899.897956	-211.302893	337.763937	816.899014	-82.425838	319.184308	730.973887	-96.707060	263.435336	666.182915	-104.354358	347.095039	721.266394	-121.246096	206.959673	548.092585	-119.983328	224.392455	578.917780	-198.363553	132.735725	522.736974	-168.089500	422.871555	467.625273	-160.126421	319.654088	456.733697	-95.011986	39.371070	935.529657	-469.563094	104.460606	879.460764	-471.502595	135.327176	897.699940	-460.147875	132.257124	793.178672	-473.129559	195.222667	657.448277	-446.255422	189.209921	648.467097	-337.128689	109.973724	558.823874	-465.151297	85.607299	475.711495	-450.782059	20.870626	415.229345	-445.490278	113.895469	462.377226	-428.419587	-34.827295	303.745874	-433.088665	-2.086054	328.533755	-357.912271	-102.311105	272.399103	-386.954127	183.441362	205.509927	-403.316596	70.968873	197.216201	-462.223517	-265.215885	893.767355	-286.264737	-53.497118	78.961229	-475.131290	-53.555310	79.134671	-77.427148	
253	1.2650	391.777840	1392.581562	-150.178758	393.129916	1398.242669	-444.958430	379.014080	1473.095268	-299.192723	357.984553	1316.510699	-297.802268	490.572561	1153.076847	-49.761537	679.477728	965.149094	-87.831181	462.715812	1142.745478	-555.188232	674.278978	966.175018	-505.291551	-114.946368	1149.327116	-284.113080	28.265714	1168.797581	-427.253137	29.086925	1193.809287	-148.482087	82.818855	1122.470316	-391.262283	76.189790	1135.489438	-172.741732	-88.018816	1197.071148	-245.139517	-85.001351	1198.339282	-332.436116	0.616759	1070.617570	-107.559411	-34.984506	1056.490181	-449.195705	103.292602	1027.008193	-90.380774	191.620588	1021.509193	-82.948114	263.943274	971.060622	-79.283482	203.871108	1054.424101	-95.473592	408.034759	904.881301	-99.982153	399.071908	900.208480	-211.373126	337.696906	817.381860	-82.484752	319.065087	731.280937	-96.747602	263.280488	666.661516	-104.420848	346.997437	721.582292	-121.267295	206.806932	548.576703	-120.052756	224.320005	579.238234	-198.361982	132.538146	523.314226	-168.130132	422.578148	467.840283	-160.105764	319.333171	457.101389	-95.022928	39.272676	935.447598	-469.535930	104.318779	879.320637	-471.477432	135.188624	897.581286	-460.138220	132.056851	793.066306	-473.110055	194.987034	657.333089	-446.246837	189.038025	648.351540	-337.115415	109.869900	558.603552	-465.140334	85.604234	475.489125	-450.776258	20.951494	414.895612	-445.494606	113.900652	462.179809	-428.409690	-34.596009	303.317959	-433.066445	-1.957780	328.174110	-357.877641	-102.049123	271.905306	-386.975500	183.724821	205.263224	-403.328743	71.286625	196.866440	-462.236894	-265.161948	893.756841	-286.207334	-53.492210	78.971433	-475.132802	-53.561816	79.119286	-77.426843	
254	1.2700	391.705768	1392.525594	-149.978170	393.103152	1398.217084	-444.817526	378.994417	1473.074217	-299.040668	357.974780	1316.440744	-297.675879	490.531640	1153.024905	-49.835026	679.467369	965.134297	-87.745302	462.754267	1142.790918	-555.058766	674.256787	966.194876	-505.167581	-115.013055	1149.297740	-284.109642	28.280816	1168.766280	-427.218139	28.991655	1193.778752	-148.424845	82.800822	1122.452095	-391.206212	76.109535	1135.467995	-172.699341	-88.076213	1197.060631	-245.111659	-85.035533	1198.327723	-332.413554	0.585735	1070.633938	-107.519481	-35.020736	1056.458027	-449.150833	103.283692	1027.136371	-90.380418	191.602586	1021.714388	-82.938700	263.998993	971.295679	-79.297295	203.841438	1054.635616	-95.456657	408.072866	905.314452	-100.002888	399.081846	900.533467	-211.443574	337.619184	817.827744	-82.546552	318.941581	731.716349	-96.841506	263.158288	667.168494	-104.477905	346.889747	721.963576	-121.301724	206.597301	549.092277	-120.061724	224.208666	579.701395	-198.413628	132.321437	523.956645	-168.191722	422.312648	468.057845	-160.115332	319.012216	457.496916	-95.014077	39.154618	935.381503	-469.501228	104.155707	879.205083	-471.454147	135.048048	897.452107	-460.091668	131.876868	792.956098	-473.088712	194.767149	657.219007	-446.223025	188.858593	648.213371	-337.084882	109.770448	558.391719	-465.133842	85.602418	475.241407	-450.737715	21.030162	414.608740	-445.500054	113.920253	462.017074	-428.425651	-34.340940	302.965494	-433.148539	-1.750943	327.777442	-357.882592	-101.809462	271.430523	-386.925885	184.027716	205.043555	-403.343710	71.612534	196.537027	-462.254481	-265.144461	893.747731	-286.252643	-53.497107	78.966192	-475.133367	-53.569340	79.108812	-77.437140	
